<svg xmlns="http://www.w3.org/2000/svg" width="108" height="81" viewBox="0 0 108 81" fill="none">
  <path fill-rule="evenodd" clip-rule="evenodd" d="M105.635 38.0283C102.777 37.9139 99.7121 35.8003 99.4575 35.6213C99.4575 35.6163 99.448 35.6113 99.4433 35.6014C102.876 35.5914 102.645 30.8818 100.693 31.1205C99.2358 31.2995 97.5855 30.3347 96.8452 29.8324C93.1483 20.259 80.5348 -1.41417 54.6099 0.0728149C27.129 1.64932 16.8496 18.0161 14.9823 20.9702C14.209 22.1886 12.9736 25.7196 11.2053 29.4346C11.0733 29.539 8.86181 31.2349 6.97096 31.0011C5.11784 30.7724 4.82549 35.0145 7.75371 35.4372C7.58867 35.666 7.41892 35.8898 7.24916 36.1037C6.07033 36.7949 4.00502 37.8194 2.03873 37.899C-0.672587 38.0084 -0.163341 41.8179 0.64298 45.4234C1.74165 51.8637 5.61294 63.0982 19.0469 71.3288C46.4147 86.2136 78.8845 79.276 88.136 72.0599C102.107 63.6253 106.068 50.8144 107.167 44.9162C107.884 41.5095 108.195 38.1228 105.635 38.0183V38.0283Z" fill="#D47A3D"/>
  <path fill-rule="evenodd" clip-rule="evenodd" d="M19.3344 43.0814C19.3344 43.0814 24.6156 33.876 51.7146 33.876C76.7483 33.876 90.7575 39.1525 92.3607 54.8977C93.0162 61.2982 91.9599 67.1765 88.414 71.8961C88.3197 71.9508 88.2301 72.0105 88.1358 72.0702C78.9456 79.2316 46.8908 86.1195 19.6503 71.6574C17.3681 68.6884 16.3496 65.6299 15.8922 63.1333C14.5153 55.6238 19.3391 43.0814 19.3391 43.0814H19.3344Z" fill="#BB2125"/>
  <path fill-rule="evenodd" clip-rule="evenodd" d="M74.9378 77.834C76.0553 74.9794 76.6778 71.8563 76.6778 68.5789C76.6778 55.1861 66.3842 44.3296 53.6858 44.3296C40.9874 44.3296 30.6938 55.1861 30.6938 68.5789C30.6938 71.4982 31.2078 74.2832 32.1037 76.8742C35.4893 77.9037 38.8844 78.6695 42.2417 79.2066C45.2689 79.6443 48.5178 79.9427 52.0071 80.077C55.869 80.2311 59.4621 80.1565 62.8005 79.893C67.2188 79.4951 71.3164 78.764 74.9425 77.8291L74.9378 77.834Z" fill="#FDEBCA"/>
  <path fill-rule="evenodd" clip-rule="evenodd" d="M77.168 10.1482C77.168 10.1482 82.8972 1.88279 97.4157 7.11957C97.4157 7.11957 105.304 17.7075 97.3921 32.9255C97.3921 32.9255 87.6549 32.6719 81.9022 25.6199C76.1495 18.5679 77.168 10.1482 77.168 10.1482Z" fill="#D77F3C"/>
  <path fill-rule="evenodd" clip-rule="evenodd" d="M90.7295 31.568C98.4721 23.3772 92.5308 13.5849 92.5308 13.5849C84.2695 10.427 79.5919 13.3761 77.6775 16.7877C78.2858 19.4931 79.507 22.6759 81.9071 25.6151C84.4628 28.7482 87.806 30.5386 90.7295 31.563V31.568Z" fill="#BB2125"/>
  <path fill-rule="evenodd" clip-rule="evenodd" d="M93.7095 6.09033C93.7095 6.09033 101.037 6.96561 103.824 12.9185C103.824 12.9185 104.187 15.1465 101.9 13.7192C101.9 13.7192 102.197 17.4044 99.7687 15.3156C97.3403 13.2269 93.7095 6.09033 93.7095 6.09033Z" fill="#FDEBCA"/>
  <path fill-rule="evenodd" clip-rule="evenodd" d="M84.6514 41.0869C91.399 57.8217 85.3398 70.1801 81.6006 75.6159C86.033 73.8156 89.7251 71.5876 92.7759 69.1308C98.3919 47.2139 84.6514 41.0869 84.6514 41.0869Z" fill="#FDEBCA"/>
  <path fill-rule="evenodd" clip-rule="evenodd" d="M12.6388 66.5248C15.4491 69.091 18.8866 71.4782 23.0786 73.5221C19.4666 67.3405 15.369 55.9369 21.3575 41.0869C21.3575 41.0869 8.72508 46.7265 12.6435 66.5248H12.6388Z" fill="#FDEBCA"/>
  <path fill-rule="evenodd" clip-rule="evenodd" d="M36.8285 32.8016C36.8285 32.8016 39.7049 33.9106 37.4368 35.5368C35.164 37.1681 29.9206 40.3012 29.9206 40.3012C29.9206 40.3012 28.4541 40.6742 29.4255 38.6451C29.4255 38.6451 26.4171 37.8544 28.1287 36.7155C29.8357 35.5766 29.3642 35.7905 29.3642 35.7905C29.3642 35.7905 25.8229 34.3134 28.4494 33.2094C31.0758 32.1103 36.8332 32.7966 36.8332 32.7966L36.8285 32.8016Z" fill="#FDEBCA"/>
  <path fill-rule="evenodd" clip-rule="evenodd" d="M72.151 33.1151C72.151 33.1151 69.2747 34.2241 71.5427 35.8503C73.8155 37.4815 79.059 40.6146 79.059 40.6146C79.059 40.6146 80.5254 40.9876 79.5541 38.9586C79.5541 38.9586 82.5625 38.1678 80.8508 37.029C79.1439 35.8901 79.6154 36.104 79.6154 36.104C79.6154 36.104 83.1566 34.6269 80.5302 33.5229C77.9037 32.4238 72.1463 33.1101 72.1463 33.1101L72.151 33.1151Z" fill="#FDEBCA"/>
  <path fill-rule="evenodd" clip-rule="evenodd" d="M74.4661 49.2477C74.4661 51.9779 76.2909 54.196 78.5401 54.196C80.7893 54.196 82.6094 51.9829 82.6094 49.2477C82.6094 46.5124 80.7846 44.2993 78.5401 44.2993C76.2956 44.2993 74.4661 46.5124 74.4661 49.2477Z" fill="#252222"/>
  <path fill-rule="evenodd" clip-rule="evenodd" d="M76.2815 47.7162C76.2815 48.5417 76.786 49.2131 77.4085 49.2131C78.0309 49.2131 78.5354 48.5417 78.5354 47.7162C78.5354 46.8906 78.0309 46.2192 77.4085 46.2192C76.786 46.2192 76.2815 46.8906 76.2815 47.7162Z" fill="#FEFEFE"/>
  <path fill-rule="evenodd" clip-rule="evenodd" d="M80.9734 58.8116C80.9734 59.7665 79.9643 60.5373 78.7195 60.5373C77.4746 60.5373 76.4656 59.7665 76.4656 58.8116C76.4656 57.8568 77.4746 57.0859 78.7195 57.0859C79.9643 57.0859 80.9734 57.8568 80.9734 58.8116Z" fill="#EE8786"/>
  <path fill-rule="evenodd" clip-rule="evenodd" d="M31.2078 58.8116C31.2078 59.7665 30.1987 60.5373 28.9539 60.5373C27.709 60.5373 26.7 59.7665 26.7 58.8116C26.7 57.8568 27.709 57.0859 28.9539 57.0859C30.1987 57.0859 31.2078 57.8568 31.2078 58.8116Z" fill="#EE8786"/>
  <path fill-rule="evenodd" clip-rule="evenodd" d="M33.1928 49.2477C33.1928 51.9779 31.3679 54.196 29.1187 54.196C26.8695 54.196 25.0447 51.9829 25.0447 49.2477C25.0447 46.5124 26.8695 44.2993 29.1187 44.2993C31.3679 44.2993 33.1928 46.5124 33.1928 49.2477Z" fill="#252222"/>
  <path fill-rule="evenodd" clip-rule="evenodd" d="M31.3775 47.7162C31.3775 48.5417 30.8729 49.2131 30.2505 49.2131C29.6281 49.2131 29.1235 48.5417 29.1235 47.7162C29.1235 46.8906 29.6281 46.2192 30.2505 46.2192C30.8729 46.2192 31.3775 46.8906 31.3775 47.7162Z" fill="#FEFEFE"/>
  <path fill-rule="evenodd" clip-rule="evenodd" d="M49.0081 49.8346C49.0081 51.794 51.163 53.3854 53.8224 53.3854C56.4819 53.3854 58.6368 51.794 58.6368 49.8346C58.6368 47.8751 56.4819 46.2837 53.8224 46.2837C51.163 46.2837 49.0081 47.8751 49.0081 49.8346Z" fill="#7C4026"/>
  <path opacity="0.1" fill-rule="evenodd" clip-rule="evenodd" d="M55.3172 51.6746C52.6577 51.6746 50.5028 50.0832 50.5028 48.1238C50.5028 47.7806 50.5877 47.4574 50.7103 47.144C49.6776 47.7955 49.0081 48.7504 49.0081 49.8296C49.0081 51.789 51.163 53.3804 53.8224 53.3804C56.015 53.3804 57.8493 52.2913 58.4293 50.8093C57.59 51.3414 56.5102 51.6697 55.3219 51.6697L55.3172 51.6746Z" fill="#503027"/>
  <path opacity="0.1" fill-rule="evenodd" clip-rule="evenodd" d="M57.1137 48.5815C56.9251 48.9694 56.3262 49.044 55.7745 48.7457C55.2228 48.4522 54.9258 47.8952 55.1144 47.5073C55.303 47.1194 55.9018 47.0448 56.4535 47.3432C57.0052 47.6366 57.3023 48.1936 57.1137 48.5815Z" fill="#FFFEF5"/>
  <path fill-rule="evenodd" clip-rule="evenodd" d="M56.5104 64.0133L60.5986 60.7857C61.8528 58.8909 60.8249 55.9468 58.9105 55.9468H48.9611C47.0467 55.9468 46.0188 58.8909 47.273 60.7857L51.2622 64.0083C52.3514 64.8886 55.3457 65.0875 56.5104 64.0083V64.0133Z" fill="#EE8786"/>
  <path fill-rule="evenodd" clip-rule="evenodd" d="M54.8504 55.1462C54.8504 58.3887 52.356 61.0146 49.2816 61.0146C46.2072 61.0146 43.7175 58.3887 43.7175 55.1462C43.7175 51.9037 46.2072 49.2778 49.2816 49.2778C52.356 49.2778 54.8504 51.9037 54.8504 55.1462Z" fill="#FDEBCA"/>
  <path fill-rule="evenodd" clip-rule="evenodd" d="M64.1255 55.1462C64.1255 58.3887 61.6311 61.0146 58.5614 61.0146C55.4917 61.0146 52.9973 58.3887 52.9973 55.1462C52.9973 51.9037 55.4917 49.2778 58.5614 49.2778C61.6311 49.2778 64.1255 51.9037 64.1255 55.1462Z" fill="#FDEBCA"/>
  <path fill-rule="evenodd" clip-rule="evenodd" d="M61.5936 53.5694C61.5936 54.1215 61.1692 54.569 60.6458 54.569C60.1224 54.569 59.698 54.1215 59.698 53.5694C59.698 53.0174 60.1224 52.5698 60.6458 52.5698C61.1692 52.5698 61.5936 53.0174 61.5936 53.5694Z" fill="#FAD29F"/>
  <path fill-rule="evenodd" clip-rule="evenodd" d="M59.0093 57.0211C59.0093 57.5731 58.585 58.0207 58.0616 58.0207C57.5382 58.0207 57.1138 57.5731 57.1138 57.0211C57.1138 56.4691 57.5382 56.0215 58.0616 56.0215C58.585 56.0215 59.0093 56.4691 59.0093 57.0211Z" fill="#FAD29F"/>
  <path fill-rule="evenodd" clip-rule="evenodd" d="M64.3328 57.0211C64.3328 57.5731 63.9084 58.0207 63.385 58.0207C62.8616 58.0207 62.4373 57.5731 62.4373 57.0211C62.4373 56.4691 62.8616 56.0215 63.385 56.0215C63.9084 56.0215 64.3328 56.4691 64.3328 57.0211Z" fill="#FAD29F"/>
  <path fill-rule="evenodd" clip-rule="evenodd" d="M47.8152 53.5694C47.8152 54.1215 47.3909 54.569 46.8674 54.569C46.344 54.569 45.9197 54.1215 45.9197 53.5694C45.9197 53.0174 46.344 52.5698 46.8674 52.5698C47.3909 52.5698 47.8152 53.0174 47.8152 53.5694Z" fill="#FAD29F"/>
  <path fill-rule="evenodd" clip-rule="evenodd" d="M45.2313 57.0211C45.2313 57.5731 44.8069 58.0207 44.2835 58.0207C43.7601 58.0207 43.3357 57.5731 43.3357 57.0211C43.3357 56.4691 43.7601 56.0215 44.2835 56.0215C44.8069 56.0215 45.2313 56.4691 45.2313 57.0211Z" fill="#FAD29F"/>
  <path fill-rule="evenodd" clip-rule="evenodd" d="M50.5547 57.0211C50.5547 57.5731 50.1304 58.0207 49.607 58.0207C49.0835 58.0207 48.6592 57.5731 48.6592 57.0211C48.6592 56.4691 49.0835 56.0215 49.607 56.0215C50.1304 56.0215 50.5547 56.4691 50.5547 57.0211Z" fill="#FAD29F"/>
  <path fill-rule="evenodd" clip-rule="evenodd" d="M30.5051 10.0291C30.5051 10.0291 24.7759 1.76365 10.2574 7.00043C10.2574 7.00043 2.36869 17.5884 10.281 32.8064C10.281 32.8064 20.0182 32.5527 25.7709 25.5007C31.5236 18.4487 30.5051 10.0291 30.5051 10.0291Z" fill="#D77F3C"/>
  <path fill-rule="evenodd" clip-rule="evenodd" d="M16.944 31.4489C9.20139 23.258 15.1427 13.4658 15.1427 13.4658C23.404 10.3078 28.0816 13.2569 29.996 16.6685C29.3877 19.374 28.1665 22.5568 25.7663 25.496C23.2106 28.6291 19.8675 30.4194 16.944 31.4439V31.4489Z" fill="#BB2125"/>
  <path fill-rule="evenodd" clip-rule="evenodd" d="M13.9638 5.96582C13.9638 5.96582 6.63622 6.8411 3.84946 12.794C3.84946 12.794 3.48637 15.022 5.77331 13.5947C5.77331 13.5947 5.47624 17.2799 7.90463 15.1911C10.333 13.1024 13.9638 5.96582 13.9638 5.96582Z" fill="#FDEBCA"/>
</svg>

